<?xml version="1.0" encoding="utf-8"?>
<!-- Generator: Adobe Illustrator 18.1.1, SVG Export Plug-In . SVG Version: 6.00 Build 0)  -->
<svg version="1.1" id="Layer_1" xmlns="http://www.w3.org/2000/svg" xmlns:xlink="http://www.w3.org/1999/xlink" x="0px" y="0px"
	 viewBox="0 0 1000 1000" enable-background="new 0 0 1000 1000" xml:space="preserve">
<rect x="250.25" y="250.25" fill="#2E3192" width="250.25" height="250.25"/>
<rect x="500.5" y="500.5" fill="#2E3192" width="250.25" height="250.25"/>
<polygon fill="#FF007E" points="500.5,0 250.25,0 0,0 0,250.25 0,500.5 0,750.75 0,1001 250.25,1001 250.25,750.75 500.5,750.75 
	500.5,500.5 250.25,500.5 250.25,250.25 500.5,250.25 750.75,250.25 750.75,0 "/>
<g>
	<polygon fill="#00D2FF" points="1000,500.5 1000,250.25 1000,0 749.75,0 749.75,250.25 500.5,250.25 500.5,500.5 749.75,500.5 
		750.75,500.5 750.75,750.75 1001,750.75 1001,500.5 	"/>
	<polygon fill="#00D2FF" points="750.7499,750.75 500.4999,750.75 250.2499,750.75 250.2499,1001 500.4999,1001 749.7499,1001 
		749.7499,1001.0001 999.9999,1001.0001 999.9999,750.7501 750.7499,750.7501 	"/>
</g>
</svg>
