<?xml version="1.0" encoding="utf-8"?>
<!-- Generator: Adobe Illustrator 26.0.2, SVG Export Plug-In . SVG Version: 6.00 Build 0)  -->
<svg version="1.1" xmlns="http://www.w3.org/2000/svg" xmlns:xlink="http://www.w3.org/1999/xlink" x="0px" y="0px"
	 viewBox="0 0 190 222" style="enable-background:new 0 0 190 222;" xml:space="preserve">
<g id="basic_character" style="display:none;">
	<g id="leg2" style="display:inline;">
		<line style="fill:none;stroke:#000000;stroke-width:8;stroke-miterlimit:10;" x1="62" y1="157" x2="68" y2="95"/>
		<polygon style="fill:none;stroke:#000000;stroke-width:8;stroke-miterlimit:10;" points="62,157 60,166.7687 77,179 		"/>
	</g>
	<g id="leg1" style="display:inline;">
		<g>
			
				<line style="fill:none;stroke:#000000;stroke-width:8;stroke-miterlimit:10;" x1="102.2225" y1="111.5497" x2="116.102" y2="163.1768"/>
		</g>
		<polygon style="fill:none;stroke:#000000;stroke-width:8;stroke-miterlimit:10;" points="114.6617,152.2715 116.102,163.1768 
			144.7775,166.4503 		"/>
	</g>
	<g id="body" style="display:inline;">
		<path style="fill:#FFFFFF;" d="M90.8423,121l-5.0054-35.7129L71.9033,121h-3.1235l-11.998-13.5308L53.8042,121h-9.1851
			C42.8804,113.7949,42,106.2744,42,98.6001C42,61.3252,62.6357,31,88,31s46,30.3252,46,67.6001
			c0,7.6743-0.8804,15.1948-2.6191,22.3999H90.8423z"/>
		<path d="M88,35c10.6658,0,20.8925,6.2332,28.7963,17.5515C125.3108,64.7442,130,81.0979,130,98.6
			c0,6.2766-0.6132,12.442-1.8268,18.4H94.3207l-2.3981-17.1104l-4.2489-30.3154l-11.1265,28.518l-6.9466,17.8046l-4.6148-5.2044
			L54.5629,98.9378l-3.376,15.343L50.5886,117h-2.7618C46.6132,111.042,46,104.8765,46,98.6
			c0-17.502,4.6892-33.8557,13.2037-46.0485C67.1075,41.2332,77.3342,35,88,35 M88,27c-27.6143,0-50,32.0564-50,71.6
			c0,9.3273,1.2588,18.2283,3.5245,26.4h15.4951L59,116l7.9803,9h7.6559L84,101l3.3638,24h47.1117
			C136.7412,116.8283,138,107.9272,138,98.6C138,59.0564,115.6143,27,88,27L88,27z"/>
	</g>
	<g id="head" style="display:inline;">
		<g>
			<circle style="fill:#FFFFFF;" cx="117.5" cy="48.5" r="36.5"/>
			<path d="M117.5,16c17.9206,0,32.5,14.5794,32.5,32.5S135.4206,81,117.5,81S85,66.4206,85,48.5S99.5794,16,117.5,16 M117.5,8
				C95.1325,8,77,26.1325,77,48.5S95.1325,89,117.5,89S158,70.8675,158,48.5S139.8675,8,117.5,8L117.5,8z"/>
		</g>
		<g>
			<circle style="fill:#FFFFFF;" cx="102" cy="47" r="7"/>
			<path d="M102,44c1.6542,0,3,1.3458,3,3s-1.3458,3-3,3s-3-1.3458-3-3S100.3458,44,102,44 M102,36c-6.0751,0-11,4.9249-11,11
				s4.9249,11,11,11s11-4.9249,11-11S108.0751,36,102,36L102,36z"/>
		</g>
		<g>
			<g>
				<line style="fill:none;stroke:#000000;stroke-width:8;stroke-miterlimit:10;" x1="123" y1="34" x2="140" y2="55"/>
			</g>
			<line style="fill:none;stroke:#000000;stroke-width:8;stroke-miterlimit:10;" x1="140" y1="36" x2="119.5" y2="56.5"/>
		</g>
	</g>
</g>
<g id="phase2">
	<g id="leg2_00000023283181614068025110000009828080829267095447_">
		
			<line style="fill:none;stroke:#000000;stroke-width:8;stroke-miterlimit:10;" x1="26.4541" y1="132.9064" x2="80.857" y2="102.5695"/>
		<polygon style="fill:none;stroke:#000000;stroke-width:8;stroke-miterlimit:10;" points="26.4541,132.9064 17.2825,136.8189 
			16.8945,157.7582 		"/>
	</g>
	<g id="leg1_00000119110480147277310900000013217893485757250689_">
		<g>
			
				<line style="fill:none;stroke:#000000;stroke-width:8;stroke-miterlimit:10;" x1="111.2534" y1="107.735" x2="103.2261" y2="160.5892"/>
		</g>
		<polygon style="fill:none;stroke:#000000;stroke-width:8;stroke-miterlimit:10;" points="106.2876,150.0238 103.2261,160.5892 
			128.1716,175.1054 		"/>
	</g>
	<g id="body_00000089574753689364914410000000763586577220588181_">
		<path style="fill:#FFFFFF;" d="M88.5024,121.0127l-2.3022-35.9883l-16.583,34.562l-3.1147-0.2349l-10.9448-14.396l-3.9878,13.2681
			l-9.1587-0.6914c-1.1919-7.3164-1.5034-14.8818-0.9253-22.5337c2.7109-35.9072,24.0518-64.0342,48.584-64.0342
			c0.7881,0,1.5869,0.0303,2.3745,0.0898c11.9766,0.9043,22.8208,8.583,30.5352,21.6216
			c7.9854,13.4976,11.6235,30.9883,10.2446,49.2495c-0.5776,7.6533-2.0215,15.0859-4.2979,22.1392L88.5024,121.0127z"/>
		<path d="M90.0703,34.9643c0.6879,0,1.3854,0.0263,2.0732,0.0783c10.6355,0.803,20.3639,7.7885,27.3931,19.6697
			c7.5723,12.7992,11.0169,29.4596,9.6991,46.912c-0.4726,6.2588-1.5482,12.3605-3.2069,18.2102l-33.7564-2.5488l-1.1031-17.2424
			l-1.9544-30.5491l-13.242,27.5992l-8.2674,17.2311l-4.2098-5.5371l-9.5082-12.5059l-4.5216,15.0452l-0.8013,2.6664l-2.754-0.2079
			c-0.7615-6.0324-0.9088-12.2265-0.4362-18.4853c1.2725-16.8527,6.8776-32.4287,15.7829-43.8588
			C69.5353,40.8159,79.768,34.9643,90.0703,34.9643 M90.0703,26.9643c-26.4465,0-49.6927,29.5822-52.5733,67.7332
			c-0.7023,9.3008-0.1172,18.2714,1.5269,26.5905l15.4511,1.1666l2.6523-8.8253l7.2801,9.5753l7.6341,0.5764l11.1442-23.2269
			l1.5473,24.1852l46.978,3.5471c2.8745-7.9779,4.7999-16.7589,5.5022-26.0597c2.9773-39.4314-16.9314-73.0822-44.4673-75.1613
			C91.8517,26.9978,90.9578,26.9643,90.0703,26.9643L90.0703,26.9643z"/>
	</g>
	<g id="head_00000025421981802649761580000014009354115025787814_">
		<g>
			<path style="fill:#FFFFFF;" d="M120.5864,87.2271c-0.9248,0-1.8638-0.0352-2.791-0.1055
				c-9.7222-0.7339-18.5762-5.21-24.9316-12.6035c-6.355-7.3931-9.4512-16.8188-8.7168-26.5405
				c1.4292-18.9277,17.3975-33.7539,36.3535-33.7539c0.9248,0,1.8638,0.0352,2.791,0.1055
				c9.7217,0.7339,18.5757,5.21,24.9312,12.6035c6.355,7.3931,9.4512,16.8188,8.7168,26.5405
				C155.5103,72.4009,139.5425,87.2271,120.5864,87.2271z"/>
			<path d="M120.5018,10.2234l-0.0002,8h0.001c0.8232,0,1.6601,0.0317,2.4876,0.0942c8.6564,0.6536,16.5402,4.6391,22.199,11.2222
				c5.6589,6.5832,8.4154,14.976,7.7618,23.6325c-1.2725,16.8532-15.4887,30.0549-32.3646,30.0549
				c-0.8249,0-1.6626-0.0317-2.4901-0.0942c-17.8697-1.3492-31.3101-16.985-29.9608-34.8547
				c1.2724-16.8517,15.4889-30.0535,32.3651-30.0549L120.5018,10.2234 M120.5001,10.2234
				C99.5194,10.2253,81.7639,26.4107,80.1583,47.676C78.4742,69.9801,95.19,89.4263,117.494,91.1104
				c1.0387,0.0784,2.0677,0.1169,3.0925,0.1169c20.9807,0,38.7362-16.1873,40.3419-37.4526
				c1.6841-22.3041-15.0317-41.7503-37.3358-43.4343C122.5539,10.2619,121.5249,10.2233,120.5001,10.2234L120.5001,10.2234z"/>
		</g>
		<g>
			<path style="fill:#FFFFFF;" d="M105.2124,55.063c-0.1787,0-0.3579-0.0068-0.5391-0.0205c-1.8647-0.1406-3.563-0.999-4.7817-2.417
				s-1.8125-3.2256-1.6714-5.0898c0.2739-3.6299,3.335-6.4736,6.9678-6.4736c0.1787,0,0.3579,0.0068,0.5391,0.0205
				c1.8647,0.1406,3.5625,0.999,4.7817,2.417c1.2188,1.418,1.8125,3.2256,1.6714,5.0898
				C111.9062,52.2192,108.8452,55.063,105.2124,55.063z"/>
			<path d="M105.1897,45.0621c0.0784,0,0.1571,0.0031,0.2365,0.009c1.0781,0.0814,1.7466,0.6839,2.0491,1.0359
				c0.3025,0.3519,0.7979,1.1033,0.7165,2.1815c-0.1175,1.5559-1.4263,2.7746-2.9797,2.7746c-0.0788,0-0.1579-0.003-0.2376-0.009
				c-1.0781-0.0814-1.7466-0.6839-2.0491-1.0359c-0.3025-0.3519-0.7979-1.1033-0.7165-2.1815
				C102.3262,46.2811,103.6355,45.0623,105.1897,45.0621 M105.1885,37.0621c-5.6985,0.0005-10.5209,4.3966-10.957,10.1723
				c-0.4574,6.0579,4.0827,11.3396,10.1406,11.797c0.2821,0.0213,0.5616,0.0318,0.8399,0.0318
				c5.6985,0,10.5209-4.3965,10.957-10.1723c0.4574-6.0579-4.0827-11.3396-10.1406-11.797
				C105.7463,37.0725,105.4668,37.062,105.1885,37.0621L105.1885,37.0621z"/>
		</g>
		<g>
			<g>
				
					<line style="fill:none;stroke:#000000;stroke-width:8;stroke-miterlimit:10;" x1="127.1194" y1="36.6806" x2="142.4901" y2="58.9009"/>
			</g>
			
				<line style="fill:none;stroke:#000000;stroke-width:8;stroke-miterlimit:10;" x1="143.9206" y1="39.9548" x2="121.9353" y2="58.8532"/>
		</g>
	</g>
</g>
<g id="phase1" style="display:none;">
	<g id="leg2_00000061436952253845404030000004796060667599923631_" style="display:inline;">
		
			<line style="fill:none;stroke:#000000;stroke-width:8;stroke-miterlimit:10;" x1="63.5189" y1="158.4663" x2="83.5741" y2="99.4936"/>
		<polygon style="fill:none;stroke:#000000;stroke-width:8;stroke-miterlimit:10;" points="63.5189,158.4663 59.3324,167.5162 
			73.0752,183.3194 		"/>
	</g>
	<g id="leg1_00000140708544252315929100000002274450250615477688_" style="display:inline;">
		<g>
			
				<line style="fill:none;stroke:#000000;stroke-width:8;stroke-miterlimit:10;" x1="104.531" y1="110.8426" x2="125.0509" y2="160.2079"/>
		</g>
		<polygon style="fill:none;stroke:#000000;stroke-width:8;stroke-miterlimit:10;" points="122.1951,149.5851 125.0509,160.2079 
			153.9082,159.6985 		"/>
	</g>
	<g id="body_00000100345350155933467350000017517951002056629394_" style="display:inline;">
		<path style="fill:#FFFFFF;" d="M48.6611,127.7539c-2.6675-6.9146-4.5244-14.2544-5.5298-21.8643
			c-2.3979-18.1558,0.2563-35.8223,7.4746-49.7456c6.9731-13.4492,17.3706-21.7227,29.2783-23.2949
			c1.3638-0.1807,2.7524-0.272,4.1265-0.272c23.6841,0,45.791,26.9116,50.3281,61.2666c1.0054,7.6084,1.1177,15.1792,0.3369,22.5498
			l-40.1895,5.3081l-9.6387-34.7495l-9.1377,37.229l-3.0967,0.4092l-13.6665-11.8433l-1.1802,13.8042L48.6611,127.7539z"/>
		<path d="M84.0106,36.5772c21.718,0,42.0831,25.3844,46.3631,57.7901c0.8218,6.2227,1.0212,12.4153,0.5982,18.4808l-33.561,4.4326
			l-4.618-16.6491l-8.1818-29.4979l-7.2966,29.7293l-4.5555,18.5609l-5.2565-4.5554l-11.8722-10.2886l-1.338,15.6529l-0.2372,2.7741
			l-2.738,0.3616c-1.9832-5.7478-3.3984-11.7799-4.2203-18.0024c-2.2917-17.3514,0.2158-34.1782,7.0605-47.3809
			c6.3538-12.2557,15.6763-19.7743,26.2503-21.1709C81.5988,36.6569,82.8109,36.5772,84.0106,36.5772 M84.0106,28.5772
			c-1.5456,0-3.0949,0.1005-4.6505,0.306c-27.3765,3.6158-45.3721,38.3273-40.1943,77.5305
			c1.2213,9.2469,3.6347,17.9066,6.9509,25.7112l15.3618-2.0289l0.7849-9.1818l9.0901,7.8776l7.59-1.0024l6.1406-25.0194
			l6.4774,23.3529l46.7061-6.1687c1.1763-8.398,1.2587-17.3873,0.0374-26.6342C133.4213,56.3443,109.6642,28.5772,84.0106,28.5772
			L84.0106,28.5772z"/>
	</g>
	<g id="head_00000061460309706506069980000007499266506974096272_" style="display:inline;">
		<g>
			<path style="fill:#FFFFFF;" d="M111.3701,82.8403c-18.2114,0-33.7456-13.6392-36.1348-31.7261
				c-2.6353-19.9526,11.4536-38.3296,31.4067-40.9648c1.6016-0.2114,3.2271-0.3188,4.8301-0.3188
				c18.2114,0,33.7461,13.6392,36.1353,31.7256c2.6348,19.9531-11.4541,38.3301-31.4072,40.9653
				C114.5986,82.7329,112.9731,82.8403,111.3701,82.8403z"/>
			<path d="M111.4745,5.8307v8c16.2112,0,30.04,12.1445,32.167,28.2491c1.1367,8.6063-1.1461,17.1402-6.428,24.0295
				c-5.2818,6.8894-12.9304,11.3095-21.5367,12.4462c-1.4291,0.1888-2.878,0.2844-4.3065,0.2844
				c-16.2124,0-30.0422-12.1445-32.1692-28.2491c-1.1367-8.6063,1.1461-17.1402,6.428-24.0295
				c5.2818-6.8893,12.9304-11.3095,21.5367-12.4462c1.4285-0.1887,2.8776-0.2844,4.307-0.2844L111.4745,5.8307 M111.4724,5.8307
				c-1.7664,0.0001-3.5553,0.1157-5.3541,0.3533C83.9434,9.1128,68.3412,29.4634,71.27,51.6384
				C73.9612,72.0146,91.3604,86.84,111.3703,86.84c1.7664,0,3.5553-0.1157,5.354-0.3533
				c22.175-2.9288,37.7771-23.2794,34.8483-45.4543C148.8814,20.6561,131.4823,5.8297,111.4724,5.8307L111.4724,5.8307z"/>
		</g>
		<g>
			<path style="fill:#FFFFFF;" d="M95.8447,53.8789c-3.4902,0-6.4678-2.6157-6.9263-6.0845
				c-0.2446-1.8535,0.2471-3.6919,1.3848-5.1758c1.1377-1.4834,2.7847-2.4355,4.6387-2.6807
				c0.3091-0.0405,0.6221-0.0615,0.9302-0.0615c3.4902,0,6.4678,2.6162,6.9263,6.085c0.5054,3.8267-2.1968,7.3511-6.0234,7.8564
				C96.4658,53.8584,96.1528,53.8789,95.8447,53.8789z"/>
			<path d="M95.873,43.8766c1.4908,0.0001,2.7632,1.1215,2.9596,2.6085c0.1416,1.0719-0.311,1.8498-0.5934,2.2181
				c-0.2824,0.3683-0.9161,1.0073-1.988,1.1488c-0.136,0.018-0.2729,0.0271-0.4067,0.0271c-1.4912,0-2.7639-1.1214-2.9603-2.6085
				c-0.1416-1.0719,0.311-1.8498,0.5934-2.2181c0.2824-0.3683,0.9161-1.0073,1.9879-1.1488
				C95.6015,43.8857,95.7386,43.8766,95.873,43.8766 M95.8722,35.8766c-0.4798,0-0.9656,0.0314-1.4542,0.096
				c-6.0228,0.7954-10.2604,6.3228-9.465,12.3456c0.731,5.5343,5.4566,9.5609,10.8914,9.5609c0.4798,0,0.9656-0.0314,1.4542-0.096
				c6.0228-0.7954,10.2604-6.3228,9.465-12.3456C106.0327,39.9032,101.307,35.8763,95.8722,35.8766L95.8722,35.8766z"/>
		</g>
		<g>
			<g>
				
					<line style="fill:none;stroke:#000000;stroke-width:8;stroke-miterlimit:10;" x1="114.9754" y1="31.24" x2="134.5787" y2="49.8333"/>
			</g>
			
				<line style="fill:none;stroke:#000000;stroke-width:8;stroke-miterlimit:10;" x1="132.0909" y1="30.9969" x2="114.4516" y2="54.0046"/>
		</g>
	</g>
</g>
</svg>
